<svg width="53" height="45" viewBox="0 0 53 45" fill="none" xmlns="http://www.w3.org/2000/svg">
<path d="M40.7007 3.44931C39.8001 1.93094 38.1656 1 36.4002 1H16.5983C14.8329 1 13.1983 1.93104 12.2977 3.44956L2.51252 19.9496C1.58 21.522 1.58 23.478 2.51252 25.0504L12.2977 41.5504C13.1983 43.069 14.8329 44 16.5983 44H36.4002C38.1656 44 39.8001 43.0691 40.7007 41.5507L50.4871 25.0507C51.4199 23.4781 51.4199 21.5219 50.4871 19.9493L40.7007 3.44931ZM34.9321 31.825C34.0315 33.3434 32.397 34.2744 30.6316 34.2744H22.3603C20.5949 34.2744 18.9604 33.3434 18.0598 31.825L14.0419 25.0506C13.1092 23.4781 13.1092 21.5219 14.0419 19.9494L18.0598 13.175C18.9604 11.6566 20.5949 10.7256 22.3603 10.7256H30.6316C32.397 10.7256 34.0315 11.6566 34.9321 13.175L38.95 19.9494C39.8826 21.5219 39.8826 23.4781 38.95 25.0506L34.9321 31.825Z" fill="#361281" stroke="#D5FF2F" stroke-width="2" stroke-miterlimit="10"/>
</svg>
