<svg width="40" height="41" viewBox="0 0 40 41" fill="none" xmlns="http://www.w3.org/2000/svg">
<path d="M4.28571 0.0341797C1.91964 0.0341797 0 1.95382 0 4.31989V35.7485C0 38.1145 1.91964 40.0342 4.28571 40.0342H35.7143C38.0804 40.0342 40 38.1145 40 35.7485V4.31989C40 1.95382 38.0804 0.0341797 35.7143 0.0341797H4.28571ZM24.4704 5.74847L32.0588 15.9761L30.0134 17.4937L22.4252 7.26606L24.4704 5.74847ZM19.7529 9.83972L29.5515 17.9886L27.9346 19.9353L18.1362 11.7857L19.7529 9.83972ZM15.9915 15.1184L27.5391 20.5287L26.4835 22.8383L14.9362 17.4608L15.9915 15.1184ZM13.8143 20.8922L26.2852 23.4981L25.7572 26.0061L13.2866 23.3994L13.8143 20.892V20.8922ZM7.94107 24.1253H10.4821V31.7799H28.3309V24.1252H30.871V34.3199H7.94107V24.1251V24.1253ZM13.0222 26.666H25.7571V29.2061H13.0223V26.666H13.0222Z" fill="#FF6F1F"/>
</svg>
