<svg width="79" height="193" viewBox="0 0 79 193" fill="none" xmlns="http://www.w3.org/2000/svg">
<path d="M21.8942 4.87131L14.0413 2L6.18826 4.87131L2 12.1495L3.4554 20.4215L9.85823 25.8223H18.2348L24.6428 20.4215L26.093 12.1495L21.8942 4.87131ZM19.5645 17.4924L16.2191 20.3111H11.8529L8.51275 17.4924L7.75362 13.1749L9.93674 9.38333L14.036 7.87932L18.1353 9.38333L20.3184 13.1749L19.5645 17.4924Z" stroke="#FF6F1F" stroke-width="2" stroke-miterlimit="10"/>
<path d="M65.871 4.87131L58.018 2L50.165 4.87131L45.9767 12.1495L47.4322 20.4215L53.835 25.8223H62.2115L68.6195 20.4215L70.0697 12.1495L65.871 4.87131ZM63.5413 17.4924L60.1959 20.3111H55.8296L52.4895 17.4924L51.7304 13.1749L53.9135 9.38333L58.0128 7.87932L62.112 9.38333L64.2952 13.1749L63.5413 17.4924Z" stroke="#FF6F1F" stroke-width="2" stroke-miterlimit="10"/>
<path d="M21.8942 46.4157L14.0413 43.5444L6.18826 46.4157L2 53.6939L3.4554 61.966L9.85823 67.3667H18.2348L24.6428 61.966L26.093 53.6939L21.8942 46.4157ZM19.5645 59.0368L16.2191 61.8555H11.8529L8.51275 59.0368L7.75362 54.7194L9.93674 50.9278L14.036 49.4238L18.1353 50.9278L20.3184 54.7194L19.5645 59.0368Z" stroke="#FF6F1F" stroke-width="2" stroke-miterlimit="10"/>
<path d="M65.871 46.4157L58.018 43.5444L50.165 46.4157L45.9767 53.6939L47.4322 61.966L53.835 67.3667H62.2115L68.6195 61.966L70.0697 53.6939L65.871 46.4157ZM63.5413 59.0368L60.1959 61.8555H55.8296L52.4895 59.0368L51.7304 54.7194L53.9135 50.9278L58.0128 49.4238L62.112 50.9278L64.2952 54.7194L63.5413 59.0368Z" stroke="#FF6F1F" stroke-width="2" stroke-miterlimit="10"/>
<path d="M21.8942 87.9602L14.0413 85.0889L6.18826 87.9602L2 95.2383L3.4554 103.51L9.85823 108.911H18.2348L24.6428 103.51L26.093 95.2383L21.8942 87.9602ZM19.5645 100.581L16.2191 103.4H11.8529L8.51275 100.581L7.75362 96.2638L9.93674 92.4722L14.036 90.9682L18.1353 92.4722L20.3184 96.2638L19.5645 100.581Z" stroke="#FF6F1F" stroke-width="2" stroke-miterlimit="10"/>
<path d="M65.871 87.9602L58.018 85.0889L50.165 87.9602L45.9767 95.2383L47.4322 103.51L53.835 108.911H62.2115L68.6195 103.51L70.0697 95.2383L65.871 87.9602ZM63.5413 100.581L60.1959 103.4H55.8296L52.4895 100.581L51.7304 96.2638L53.9135 92.4722L58.0128 90.9682L62.112 92.4722L64.2952 96.2638L63.5413 100.581Z" stroke="#FF6F1F" stroke-width="2" stroke-miterlimit="10"/>
<path d="M21.8942 129.505L14.0413 126.633L6.18826 129.505L2 136.783L3.4554 145.055L9.85823 150.456H18.2348L24.6428 145.055L26.093 136.783L21.8942 129.505ZM19.5645 142.126L16.2191 144.944H11.8529L8.51275 142.126L7.75362 137.808L9.93674 134.017L14.036 132.513L18.1353 134.017L20.3184 137.808L19.5645 142.126Z" stroke="#FF6F1F" stroke-width="2" stroke-miterlimit="10"/>
<path d="M65.871 129.505L58.018 126.633L50.165 129.505L45.9767 136.783L47.4322 145.055L53.835 150.456H62.2115L68.6195 145.055L70.0697 136.783L65.871 129.505ZM63.5413 142.126L60.1959 144.944H55.8296L52.4895 142.126L51.7304 137.808L53.9135 134.017L58.0128 132.513L62.112 134.017L64.2952 137.808L63.5413 142.126Z" stroke="#FF6F1F" stroke-width="2" stroke-miterlimit="10"/>
<path d="M21.8942 171.049L14.0413 168.178L6.18826 171.049L2 178.327L3.4554 186.599L9.85823 192H18.2348L24.6428 186.599L26.093 178.327L21.8942 171.049ZM19.5645 183.67L16.2191 186.489H11.8529L8.51275 183.67L7.75362 179.353L9.93674 175.561L14.036 174.057L18.1353 175.561L20.3184 179.353L19.5645 183.67Z" stroke="#FF6F1F" stroke-width="2" stroke-miterlimit="10"/>
<path d="M65.871 171.049L58.018 168.178L50.165 171.049L45.9767 178.327L47.4322 186.599L53.835 192H62.2115L68.6195 186.599L70.0697 178.327L65.871 171.049ZM63.5413 183.67L60.1959 186.489H55.8296L52.4895 183.67L51.7304 179.353L53.9135 175.561L58.0128 174.057L62.112 175.561L64.2952 179.353L63.5413 183.67Z" stroke="#FF6F1F" stroke-width="2" stroke-miterlimit="10"/>
</svg>
