<svg width="172" height="344" viewBox="0 0 172 344" fill="none" xmlns="http://www.w3.org/2000/svg">
<path d="M29.8916 1.5L41.6836 13.1689V29.5859L29.8916 41.2568H13.292L1.5 29.5859V13.1689L13.292 1.5H29.8916ZM32.6826 16.8184L32.5332 16.6709L26.2666 10.5137L26.1201 10.3701H16.9199L16.7734 10.5137L10.5068 16.6709L10.3574 16.8184V25.9385L10.5068 26.085L16.7734 32.2432L16.9199 32.3867H26.1201L26.2666 32.2432L32.5332 26.085L32.6826 25.9385V16.8184Z" fill="#361281" stroke="#54F2F2"/>
<path d="M30.0969 1H13.0864L1 12.9611V29.7953L13.0864 41.7565H30.0969L42.1833 29.7953V12.9611L30.0969 1ZM32.1829 25.7285L25.9159 31.8863H17.1241L10.8571 25.7285V17.0279L17.1241 10.8702H25.9159L32.1829 17.0279V25.7285Z" fill="#361281" stroke="#54F2F2" stroke-width="2" stroke-miterlimit="10"/>
<path d="M105.096 1.5L116.888 13.1689V29.5859L105.096 41.2568H88.4963L76.7043 29.5859V13.1689L88.4963 1.5H105.096ZM107.887 16.8184L107.738 16.6709L101.471 10.5137L101.324 10.3701H92.1243L91.9778 10.5137L85.7112 16.6709L85.5618 16.8184V25.9385L85.7112 26.085L91.9778 32.2432L92.1243 32.3867H101.324L101.471 32.2432L107.738 26.085L107.887 25.9385V16.8184Z" fill="#361281" stroke="#54F2F2"/>
<path d="M105.301 1H88.2907L76.2043 12.9611V29.7953L88.2907 41.7565H105.301L117.388 29.7953V12.9611L105.301 1ZM107.387 25.7285L101.12 31.8863H92.3285L86.0615 25.7285V17.0279L92.3285 10.8702H101.12L107.387 17.0279V25.7285Z" fill="#361281" stroke="#54F2F2" stroke-width="2" stroke-miterlimit="10"/>
<path d="M180.3 1.5L192.092 13.1689V29.5859L180.3 41.2568H163.701L151.909 29.5859V13.1689L163.701 1.5H180.3ZM183.091 16.8184L182.942 16.6709L176.675 10.5137L176.529 10.3701H167.329L167.182 10.5137L160.916 16.6709L160.766 16.8184V25.9385L160.916 26.085L167.182 32.2432L167.329 32.3867H176.529L176.675 32.2432L182.942 26.085L183.091 25.9385V16.8184Z" fill="#361281" stroke="#54F2F2"/>
<path d="M180.506 1H163.495L151.409 12.9611V29.7953L163.495 41.7565H180.506L192.592 29.7953V12.9611L180.506 1ZM182.592 25.7285L176.325 31.8863H167.533L161.266 25.7285V17.0279L167.533 10.8702H176.325L182.592 17.0279V25.7285Z" fill="#361281" stroke="#54F2F2" stroke-width="2" stroke-miterlimit="10"/>
<path d="M29.8916 76.8108L41.6836 88.4797V104.897L29.8916 116.568H13.292L1.5 104.897V88.4797L13.292 76.8108H29.8916ZM32.6826 92.1292L32.5332 91.9817L26.2666 85.8245L26.1201 85.6809H16.9199L16.7734 85.8245L10.5068 91.9817L10.3574 92.1292V101.249L10.5068 101.396L16.7734 107.554L16.9199 107.698H26.1201L26.2666 107.554L32.5332 101.396L32.6826 101.249V92.1292Z" fill="#361281" stroke="#54F2F2"/>
<path d="M30.0969 76.3108H13.0864L1 88.2719V105.106L13.0864 117.067H30.0969L42.1833 105.106V88.2719L30.0969 76.3108ZM32.1829 101.039L25.9159 107.197H17.1241L10.8571 101.039V92.3387L17.1241 86.181H25.9159L32.1829 92.3387V101.039Z" fill="#361281" stroke="#54F2F2" stroke-width="2" stroke-miterlimit="10"/>
<path d="M105.096 76.8108L116.888 88.4797V104.897L105.096 116.568H88.4963L76.7043 104.897V88.4797L88.4963 76.8108H105.096ZM107.887 92.1292L107.738 91.9817L101.471 85.8245L101.324 85.6809H92.1243L91.9778 85.8245L85.7112 91.9817L85.5618 92.1292V101.249L85.7112 101.396L91.9778 107.554L92.1243 107.698H101.324L101.471 107.554L107.738 101.396L107.887 101.249V92.1292Z" fill="#361281" stroke="#54F2F2"/>
<path d="M105.301 76.3108H88.2907L76.2043 88.2719V105.106L88.2907 117.067H105.301L117.388 105.106V88.2719L105.301 76.3108ZM107.387 101.039L101.12 107.197H92.3285L86.0615 101.039V92.3387L92.3285 86.181H101.12L107.387 92.3387V101.039Z" fill="#361281" stroke="#54F2F2" stroke-width="2" stroke-miterlimit="10"/>
<path d="M180.3 76.8108L192.092 88.4797V104.897L180.3 116.568H163.7L151.908 104.897V88.4797L163.7 76.8108H180.3ZM183.091 92.1292L182.941 91.9817L176.675 85.8245L176.528 85.6809H167.328L167.182 85.8245L160.915 91.9817L160.766 92.1292V101.249L160.915 101.396L167.182 107.554L167.328 107.698H176.528L176.675 107.554L182.941 101.396L183.091 101.249V92.1292Z" fill="#361281" stroke="#54F2F2"/>
<path d="M180.505 76.3108H163.495L151.408 88.2719V105.106L163.495 117.067H180.505L192.591 105.106V88.2719L180.505 76.3108ZM182.591 101.039L176.324 107.197H167.532L161.265 101.039V92.3387L167.532 86.181H176.324L182.591 92.3387V101.039Z" fill="#361281" stroke="#54F2F2" stroke-width="2" stroke-miterlimit="10"/>
<path d="M29.8916 152.121L41.6836 163.79V180.207L29.8916 191.878H13.292L1.5 180.207V163.79L13.292 152.121H29.8916ZM32.6826 167.441L32.5342 167.294L26.2676 161.092L26.1211 160.947H16.9189L16.7725 161.092L10.5059 167.294L10.3574 167.441V176.559L10.5059 176.705L16.7725 182.907L16.9189 183.052H26.1211L26.2676 182.907L32.5342 176.705L32.6826 176.559V167.441Z" fill="#361281" stroke="#54F2F2"/>
<path d="M30.0969 151.621H13.0864L1 163.582V180.417L13.0864 192.378H30.0969L42.1833 180.417V163.582L30.0969 151.621ZM32.1829 176.35L25.9159 182.552H17.1241L10.8571 176.35V167.649L17.1241 161.447H25.9159L32.1829 167.649V176.35Z" fill="#361281" stroke="#54F2F2" stroke-width="2" stroke-miterlimit="10"/>
<path d="M105.096 152.121L116.888 163.79V180.207L105.096 191.878H88.4963L76.7043 180.207V163.79L88.4963 152.121H105.096ZM107.887 167.441L107.739 167.294L101.472 161.092L101.325 160.947H92.1233L91.9768 161.092L85.7102 167.294L85.5618 167.441V176.559L85.7102 176.705L91.9768 182.907L92.1233 183.052H101.325L101.472 182.907L107.739 176.705L107.887 176.559V167.441Z" fill="#361281" stroke="#54F2F2"/>
<path d="M105.301 151.621H88.2907L76.2043 163.582V180.417L88.2907 192.378H105.301L117.388 180.417V163.582L105.301 151.621ZM107.387 176.35L101.12 182.552H92.3285L86.0615 176.35V167.649L92.3285 161.447H101.12L107.387 167.649V176.35Z" fill="#361281" stroke="#54F2F2" stroke-width="2" stroke-miterlimit="10"/>
<path d="M180.3 152.121L192.092 163.79V180.207L180.3 191.878H163.7L151.908 180.207V163.79L163.7 152.121H180.3ZM183.091 167.441L182.942 167.294L176.676 161.092L176.529 160.947H167.327L167.181 161.092L160.914 167.294L160.766 167.441V176.559L160.914 176.705L167.181 182.907L167.327 183.052H176.529L176.676 182.907L182.942 176.705L183.091 176.559V167.441Z" fill="#361281" stroke="#54F2F2"/>
<path d="M180.505 151.621H163.495L151.408 163.582V180.417L163.495 192.378H180.505L192.591 180.417V163.582L180.505 151.621ZM182.591 176.35L176.324 182.552H167.532L161.265 176.35V167.649L167.532 161.447H176.324L182.591 167.649V176.35Z" fill="#361281" stroke="#54F2F2" stroke-width="2" stroke-miterlimit="10"/>
<path d="M29.8916 227.432L41.6836 239.101V255.518L29.8916 267.189H13.292L1.5 255.518V239.101L13.292 227.432H29.8916ZM32.6826 242.752L32.5342 242.605L26.2676 236.403L26.1211 236.258H16.9189L16.7725 236.403L10.5059 242.605L10.3574 242.752V251.87L10.5059 252.016L16.7725 258.218L16.9189 258.363H26.1211L26.2676 258.218L32.5342 252.016L32.6826 251.87V242.752Z" fill="#361281" stroke="#54F2F2"/>
<path d="M30.0969 226.932H13.0864L1 238.893V255.728L13.0864 267.689H30.0969L42.1833 255.728V238.893L30.0969 226.932ZM32.1829 251.661L25.9159 257.863H17.1241L10.8571 251.661V242.96L17.1241 236.758H25.9159L32.1829 242.96V251.661Z" fill="#361281" stroke="#54F2F2" stroke-width="2" stroke-miterlimit="10"/>
<path d="M105.096 227.432L116.888 239.101V255.518L105.096 267.189H88.4963L76.7043 255.518V239.101L88.4963 227.432H105.096ZM107.887 242.752L107.739 242.605L101.472 236.403L101.325 236.258H92.1233L91.9768 236.403L85.7102 242.605L85.5618 242.752V251.87L85.7102 252.016L91.9768 258.218L92.1233 258.363H101.325L101.472 258.218L107.739 252.016L107.887 251.87V242.752Z" fill="#361281" stroke="#54F2F2"/>
<path d="M105.301 226.932H88.2907L76.2043 238.893V255.728L88.2907 267.689H105.301L117.388 255.728V238.893L105.301 226.932ZM107.387 251.661L101.12 257.863H92.3285L86.0615 251.661V242.96L92.3285 236.758H101.12L107.387 242.96V251.661Z" fill="#361281" stroke="#54F2F2" stroke-width="2" stroke-miterlimit="10"/>
<path d="M180.3 227.432L192.092 239.101V255.518L180.3 267.189H163.7L151.908 255.518V239.101L163.7 227.432H180.3ZM183.091 242.752L182.942 242.605L176.676 236.403L176.529 236.258H167.327L167.181 236.403L160.914 242.605L160.766 242.752V251.87L160.914 252.016L167.181 258.218L167.327 258.363H176.529L176.676 258.218L182.942 252.016L183.091 251.87V242.752Z" fill="#361281" stroke="#54F2F2"/>
<path d="M180.505 226.932H163.495L151.408 238.893V255.728L163.495 267.689H180.505L192.591 255.728V238.893L180.505 226.932ZM182.591 251.661L176.324 257.863H167.532L161.265 251.661V242.96L167.532 236.758H176.324L182.591 242.96V251.661Z" fill="#361281" stroke="#54F2F2" stroke-width="2" stroke-miterlimit="10"/>
<path d="M29.8916 302.744L41.6836 314.412V330.829L29.8916 342.5H13.292L1.5 330.829V314.412L13.292 302.744H29.8916ZM32.6826 318.063L32.5342 317.916L26.2676 311.714L26.1211 311.57H16.9189L16.7725 311.714L10.5059 317.916L10.3574 318.063V327.181L10.5059 327.328L16.7725 333.53L16.9189 333.674H26.1211L26.2676 333.53L32.5342 327.328L32.6826 327.181V318.063Z" fill="#361281" stroke="#54F2F2"/>
<path d="M30.0969 302.244H13.0864L1 314.205V331.039L13.0864 343H30.0969L42.1833 331.039V314.205L30.0969 302.244ZM32.1829 326.972L25.9159 333.174H17.1241L10.8571 326.972V318.271L17.1241 312.069H25.9159L32.1829 318.271V326.972Z" fill="#361281" stroke="#54F2F2" stroke-width="2" stroke-miterlimit="10"/>
<path d="M105.096 302.744L116.888 314.412V330.829L105.096 342.5H88.4963L76.7043 330.829V314.412L88.4963 302.744H105.096ZM107.887 318.063L107.739 317.916L101.472 311.714L101.325 311.57H92.1233L91.9768 311.714L85.7102 317.916L85.5618 318.063V327.181L85.7102 327.328L91.9768 333.53L92.1233 333.674H101.325L101.472 333.53L107.739 327.328L107.887 327.181V318.063Z" fill="#361281" stroke="#54F2F2"/>
<path d="M105.301 302.244H88.2907L76.2043 314.205V331.039L88.2907 343H105.301L117.388 331.039V314.205L105.301 302.244ZM107.387 326.972L101.12 333.174H92.3285L86.0615 326.972V318.271L92.3285 312.069H101.12L107.387 318.271V326.972Z" fill="#361281" stroke="#54F2F2" stroke-width="2" stroke-miterlimit="10"/>
<path d="M180.3 302.744L192.092 314.412V330.829L180.3 342.5H163.7L151.908 330.829V314.412L163.7 302.744H180.3ZM183.091 318.063L182.942 317.916L176.676 311.714L176.529 311.57H167.327L167.181 311.714L160.914 317.916L160.766 318.063V327.181L160.914 327.328L167.181 333.53L167.327 333.674H176.529L176.676 333.53L182.942 327.328L183.091 327.181V318.063Z" fill="#361281" stroke="#54F2F2"/>
<path d="M180.505 302.244H163.495L151.408 314.205V331.039L163.495 343H180.505L192.591 331.039V314.205L180.505 302.244ZM182.591 326.972L176.324 333.174H167.532L161.265 326.972V318.271L167.532 312.069H176.324L182.591 318.271V326.972Z" fill="#361281" stroke="#54F2F2" stroke-width="2" stroke-miterlimit="10"/>
</svg>
