<svg width="31" height="21" viewBox="0 0 31 21" fill="none" xmlns="http://www.w3.org/2000/svg">
<path d="M30.2141 3.16778C30.0394 2.56182 29.699 2.01321 29.2292 1.58028C28.7462 1.13404 28.1541 0.814825 27.509 0.652781C25.0944 0.0340305 15.4207 0.0340306 15.4207 0.0340306C11.3878 -0.0105786 7.35594 0.185624 3.34782 0.62153C2.70263 0.795547 2.11168 1.12189 1.62753 1.57153C1.15182 2.01653 0.807246 2.56528 0.627246 3.16653C0.194851 5.43121 -0.0152362 7.73071 -0.000183041 10.034C-0.0156116 12.3353 0.19396 14.634 0.627246 16.9015C0.803388 17.5003 1.14667 18.0465 1.62367 18.4878C2.10067 18.929 2.69467 19.2478 3.34782 19.4165C5.79453 20.034 15.4207 20.034 15.4207 20.034C19.4587 20.0787 23.4957 19.8825 27.509 19.4465C28.1541 19.2845 28.7462 18.9653 29.2292 18.519C29.6989 18.0862 30.0388 17.5375 30.2128 16.9315C30.6565 14.6677 30.8722 12.3673 30.857 10.0628C30.8903 7.74854 30.6749 5.43724 30.2141 3.16653V3.16778ZM12.3452 14.314V5.75528L20.3938 10.0353L12.3452 14.314Z" fill="#D5FF2F"/>
</svg>
