<svg width="70" height="54" viewBox="0 0 70 54" fill="none" xmlns="http://www.w3.org/2000/svg">
<path d="M59.2579 5.13569C54.7954 3.12319 50.0121 1.63569 45.01 0.789855C44.9654 0.781303 44.9193 0.786814 44.8781 0.805626C44.8368 0.824438 44.8024 0.855621 44.7796 0.894855C44.1671 1.9711 43.4846 3.37402 43.0062 4.48235C37.7011 3.68971 32.3076 3.68971 27.0025 4.48235C26.4697 3.25403 25.8689 2.05634 25.2029 0.894855C25.1803 0.855138 25.1462 0.82325 25.105 0.803447C25.0638 0.783644 25.0176 0.776867 24.9725 0.784021C19.9733 1.62985 15.19 3.11736 10.7246 5.13277C10.6862 5.14888 10.6536 5.17636 10.6312 5.21152C1.55458 18.5553 -0.933335 31.5694 0.288748 44.4203C0.292149 44.4517 0.301918 44.4822 0.317462 44.5098C0.333006 44.5374 0.354 44.5615 0.379165 44.5807C5.67698 48.4378 11.586 51.376 17.8587 53.2724C17.9025 53.2858 17.9492 53.2858 17.993 53.2723C18.0367 53.2587 18.0753 53.2323 18.1037 53.1965C19.4536 51.3913 20.6497 49.4761 21.6796 47.4711C21.6939 47.4437 21.7021 47.4135 21.7037 47.3827C21.7054 47.3518 21.7003 47.3209 21.689 47.2922C21.6777 47.2634 21.6603 47.2374 21.638 47.2159C21.6158 47.1945 21.5892 47.1781 21.56 47.1678C19.6758 46.4582 17.8502 45.602 16.1 44.6069C16.0685 44.589 16.042 44.5635 16.0229 44.5328C16.0037 44.5021 15.9924 44.4671 15.9901 44.4309C15.9878 44.3948 15.9945 44.3586 16.0096 44.3257C16.0247 44.2928 16.0478 44.2642 16.0767 44.2424C16.4442 43.9711 16.8117 43.6882 17.1617 43.4053C17.1932 43.3798 17.2311 43.3636 17.2713 43.3585C17.3115 43.3533 17.3523 43.3594 17.3892 43.3761C28.8429 48.5211 41.2475 48.5211 52.5671 43.3761C52.6041 43.3584 52.6453 43.3515 52.6861 43.3562C52.7268 43.3608 52.7654 43.3768 52.7975 43.4024C53.1475 43.6882 53.5121 43.9711 53.8825 44.2424C53.9117 44.2637 53.9351 44.292 53.9507 44.3246C53.9663 44.3572 53.9735 44.3932 53.9718 44.4294C53.9701 44.4655 53.9594 44.5006 53.9408 44.5316C53.9221 44.5626 53.8961 44.5885 53.865 44.6069C52.1208 45.6103 50.3067 46.459 48.4021 47.1649C48.3728 47.1755 48.3462 47.1922 48.3239 47.2139C48.3017 47.2357 48.2843 47.2619 48.273 47.2909C48.2616 47.3199 48.2566 47.351 48.2583 47.382C48.2599 47.4131 48.2682 47.4435 48.2825 47.4711C49.3325 49.4749 50.5342 51.3824 51.8554 53.1936C51.8829 53.2308 51.9212 53.2586 51.965 53.2732C52.0089 53.2878 52.0561 53.2885 52.1004 53.2753C58.3839 51.3842 64.3026 48.4446 69.6062 44.5807C69.6321 44.5626 69.6538 44.5392 69.6699 44.512C69.686 44.4849 69.6961 44.4546 69.6996 44.4232C71.1579 29.5657 67.2554 16.6565 59.3483 5.21735C59.3289 5.18018 59.2969 5.1512 59.2579 5.13569ZM23.3917 36.5949C19.9442 36.5949 17.1004 33.4769 17.1004 29.6532C17.1004 25.8265 19.8888 22.7115 23.3917 22.7115C26.9208 22.7115 29.7383 25.8528 29.6829 29.6532C29.6829 33.4799 26.8946 36.5949 23.3917 36.5949ZM46.6521 36.5949C43.2017 36.5949 40.3608 33.4769 40.3608 29.6532C40.3608 25.8265 43.1462 22.7115 46.6521 22.7115C50.1812 22.7115 52.9988 25.8528 52.9433 29.6532C52.9433 33.4799 50.1842 36.5949 46.6521 36.5949Z" fill="#D5FF2F"/>
</svg>
