<svg width="24" height="17" viewBox="0 0 24 17" fill="none" xmlns="http://www.w3.org/2000/svg">
<path d="M23.4999 2.86645C23.364 2.38168 23.0993 1.9428 22.7339 1.59645C22.3582 1.23945 21.8977 0.984087 21.3959 0.854451C19.5179 0.359451 11.9939 0.359451 11.9939 0.359451C8.85721 0.323764 5.72131 0.480726 2.60388 0.829451C2.10208 0.968664 1.64245 1.22974 1.26588 1.58945C0.895885 1.94545 0.627885 2.38445 0.487885 2.86545C0.151578 4.6772 -0.0118232 6.5168 -0.000115239 8.35945C-0.0121152 10.2005 0.150885 12.0395 0.487885 13.8535C0.624885 14.3325 0.891885 14.7695 1.26288 15.1225C1.63388 15.4755 2.09588 15.7305 2.60388 15.8655C4.50689 16.3595 11.9939 16.3595 11.9939 16.3595C15.1345 16.3952 18.2744 16.2382 21.3959 15.8895C21.8977 15.7598 22.3582 15.5044 22.7339 15.1475C23.0991 14.8012 23.3636 14.3622 23.4989 13.8775C23.844 12.0664 24.0118 10.226 23.9999 8.38245C24.0258 6.53106 23.8583 4.68202 23.4999 2.86545V2.86645ZM9.60188 11.7835V4.93645L15.8619 8.36045L9.60188 11.7835Z" fill="white"/>
</svg>
